<svg width="34" height="37" viewBox="0 0 34 37" fill="none" xmlns="http://www.w3.org/2000/svg">
<g id="&#240;&#159;&#166;&#134; icon &#34;trash-alt&#34;">
<path id="Vector" d="M12.8547 29.3822C13.3418 29.3822 13.8088 29.1887 14.1532 28.8443C14.4976 28.5 14.6911 28.0329 14.6911 27.5458V16.5275C14.6911 16.0405 14.4976 15.5734 14.1532 15.229C13.8088 14.8846 13.3418 14.6911 12.8547 14.6911C12.3677 14.6911 11.9006 14.8846 11.5562 15.229C11.2118 15.5734 11.0183 16.0405 11.0183 16.5275V27.5458C11.0183 28.0329 11.2118 28.5 11.5562 28.8443C11.9006 29.1887 12.3677 29.3822 12.8547 29.3822ZM31.2186 7.34555H23.873V5.50916C23.873 4.04804 23.2926 2.64677 22.2594 1.6136C21.2263 0.580428 19.825 0 18.3639 0H14.6911C13.23 0 11.8287 0.580428 10.7955 1.6136C9.76237 2.64677 9.18194 4.04804 9.18194 5.50916V7.34555H1.83639C1.34935 7.34555 0.882255 7.53903 0.537865 7.88342C0.193476 8.22781 0 8.6949 0 9.18194C0 9.66898 0.193476 10.1361 0.537865 10.4805C0.882255 10.8249 1.34935 11.0183 1.83639 11.0183H3.67278V31.2186C3.67278 32.6797 4.2532 34.081 5.28637 35.1142C6.31954 36.1473 7.72082 36.7278 9.18194 36.7278H23.873C25.3342 36.7278 26.7354 36.1473 27.7686 35.1142C28.8018 34.081 29.3822 32.6797 29.3822 31.2186V11.0183H31.2186C31.7056 11.0183 32.1727 10.8249 32.5171 10.4805C32.8615 10.1361 33.055 9.66898 33.055 9.18194C33.055 8.6949 32.8615 8.22781 32.5171 7.88342C32.1727 7.53903 31.7056 7.34555 31.2186 7.34555ZM12.8547 5.50916C12.8547 5.02212 13.0482 4.55503 13.3926 4.21064C13.737 3.86625 14.2041 3.67278 14.6911 3.67278H18.3639C18.8509 3.67278 19.318 3.86625 19.6624 4.21064C20.0068 4.55503 20.2003 5.02212 20.2003 5.50916V7.34555H12.8547V5.50916ZM25.7094 31.2186C25.7094 31.7056 25.516 32.1727 25.1716 32.5171C24.8272 32.8615 24.3601 33.055 23.873 33.055H9.18194C8.6949 33.055 8.22781 32.8615 7.88342 32.5171C7.53903 32.1727 7.34555 31.7056 7.34555 31.2186V11.0183H25.7094V31.2186ZM20.2003 29.3822C20.6873 29.3822 21.1544 29.1887 21.4988 28.8443C21.8432 28.5 22.0367 28.0329 22.0367 27.5458V16.5275C22.0367 16.0405 21.8432 15.5734 21.4988 15.229C21.1544 14.8846 20.6873 14.6911 20.2003 14.6911C19.7132 14.6911 19.2461 14.8846 18.9017 15.229C18.5574 15.5734 18.3639 16.0405 18.3639 16.5275V27.5458C18.3639 28.0329 18.5574 28.5 18.9017 28.8443C19.2461 29.1887 19.7132 29.3822 20.2003 29.3822Z" fill="#FF0000"/>
</g>
</svg>
